
                    <svg xmlns="http://www.w3.org/2000/svg" width="70px" height="70px" xmlns:xlink="http://www.w3.org/1999/xlink" fill="#ffffff" version="1.1" xml:space="preserve" class="u-svg-content" viewBox="0 0 446.983 446.983" x="0px" y="0px" id="svg-9d34" style="enable-background:new 0 0 446.983 446.983;"><g><path d="M367.984,430.266h-47.721L179.686,5.148c-1.3-3.933-5.542-6.068-9.476-4.766c-3.933,1.3-6.066,5.542-4.767,9.475   l77.802,235.281L79,245.133c-4.143,0-7.5,3.358-7.5,7.5v114.851c0,2.241,1.003,4.365,2.733,5.79c1.354,1.115,3.042,1.71,4.767,1.71   c0.479,0,0.962-0.046,1.44-0.14l4.936-0.966l7.627,66.46c0.435,3.787,3.64,6.645,7.451,6.645h123.372   c3.812,0,7.017-2.858,7.451-6.645l5.599-48.772c0.043-0.008,0.087-0.011,0.13-0.02c17.964-3.62,28.821-11.826,32.271-24.388   c4.144-15.085-3.494-35.321-22.689-60.188l4.408-38.395l53.467,161.69h-46.189c-4.143,0-7.5,3.358-7.5,7.5s3.357,7.5,7.5,7.5   h109.709c4.143,0,7.5-3.358,7.5-7.5S372.127,430.266,367.984,430.266z M86.5,358.375v-98.237h63.854v85.744L86.5,358.375z    M217.137,431.983H107.142l-7-60.994l59.151-11.573c3.52-0.688,6.06-3.773,6.06-7.36v-91.918h71.514l-3.553,30.946   c-11.565-12.898-21.469-21.886-21.997-22.364c-3.07-2.776-7.813-2.538-10.592,0.534c-2.777,3.072-2.539,7.814,0.532,10.593   c9.164,8.29,20.094,19.599,29.727,31.527L217.137,431.983z M254.813,363.189c-1.576,5.734-6.996,9.934-16.117,12.528l5.324-46.377   C252.258,342.323,257.166,354.631,254.813,363.189z"></path><path d="M111.992,239.262c10.915,0,19.796-8.88,19.796-19.795s-8.881-19.795-19.796-19.795s-19.795,8.88-19.795,19.795   S101.077,239.262,111.992,239.262z M111.992,214.671c2.645,0,4.796,2.151,4.796,4.795s-2.151,4.795-4.796,4.795   c-2.644,0-4.795-2.151-4.795-4.795S109.348,214.671,111.992,214.671z"></path><path d="M173.992,213.262c14.512,0,26.317-11.806,26.317-26.317s-11.806-26.317-26.317-26.317   c-14.511,0-26.316,11.806-26.316,26.317S159.481,213.262,173.992,213.262z M173.992,175.627c6.24,0,11.317,5.077,11.317,11.317   s-5.077,11.317-11.317,11.317s-11.316-5.077-11.316-11.317S167.752,175.627,173.992,175.627z"></path><path d="M130.134,167.372c1.218,2.88,4.151,4.78,7.293,4.621c3.131-0.159,5.89-2.318,6.806-5.313   c1.996-6.529-5.469-12.171-11.215-8.496C130.011,160.107,128.744,164.068,130.134,167.372   C130.325,167.822,129.945,166.921,130.134,167.372z"></path>
</g></svg>