<svg xmlns="http://www.w3.org/2000/svg" width="40px" height="40px" fill="#ffffff" xmlns:xlink="http://www.w3.org/1999/xlink" version="1.1" xml:space="preserve" class="u-svg-content" viewBox="0 0 512 512" x="0px" y="0px" id="svg-08e6" style="enable-background:new 0 0 512 512;"><g><g><g><path d="M394.667,213.333h-63.99c-5.885,0-10.667,4.771-10.667,10.667l-0.003,10.667H288c-5.896,0-10.667,4.771-10.667,10.667     c0,5.896,4.771,10.667,10.667,10.667h32.003L320,266.667c0,2.823,1.125,5.542,3.125,7.542s4.708,3.125,7.542,3.125h64     c29.406,0,53.333,23.927,53.333,53.333S424.073,384,394.667,384h-384C4.771,384,0,388.771,0,394.667s4.771,10.667,10.667,10.667     h384c41.167,0,74.667-33.5,74.667-74.667S435.833,256,394.667,256h-53.333l0.01-21.333h53.323c52.938,0,96,43.063,96,96     s-43.063,96-96,96h-384C4.771,426.667,0,431.438,0,437.333C0,443.229,4.771,448,10.667,448h384     C459.365,448,512,395.365,512,330.667S459.365,213.333,394.667,213.333z"></path><path d="M501.333,106.667h-384c-41.167,0-74.667,33.5-74.667,74.667c0,41.167,33.5,74.667,74.667,74.667h53.333l0.01,21.333     h-53.344c-52.938,0-96-43.063-96-96s43.063-96,96-96h384c5.896,0,10.667-4.771,10.667-10.667C512,68.771,507.229,64,501.333,64     h-384C52.635,64,0,116.635,0,181.333s52.635,117.333,117.333,117.333h64.01c2.833,0,5.542-1.125,7.542-3.125     s3.125-4.719,3.125-7.542l-0.003-10.667H224c5.896,0,10.667-4.771,10.667-10.667c0-5.896-4.771-10.667-10.667-10.667h-31.997     L192,245.333c0-5.896-4.781-10.667-10.667-10.667h-64C87.927,234.667,64,210.74,64,181.333S87.927,128,117.333,128h384     c5.896,0,10.667-4.771,10.667-10.667C512,111.438,507.229,106.667,501.333,106.667z"></path><path d="M245.333,341.333c0,5.896,4.771,10.667,10.667,10.667s10.667-4.771,10.667-10.667V320     c0-5.896-4.771-10.667-10.667-10.667s-10.667,4.771-10.667,10.667V341.333z"></path><path d="M309.333,341.333c2.729,0,5.458-1.042,7.542-3.125c4.167-4.167,4.167-10.917,0-15.083l-21.333-21.333     c-4.167-4.167-10.917-4.167-15.083,0c-4.167,4.167-4.167,10.917,0,15.083l21.333,21.333     C303.875,340.292,306.604,341.333,309.333,341.333z"></path><path d="M210.208,338.208l21.333-21.333c4.167-4.167,4.167-10.917,0-15.083c-4.167-4.167-10.917-4.167-15.083,0l-21.333,21.333     c-4.167,4.167-4.167,10.917,0,15.083c2.083,2.083,4.813,3.125,7.542,3.125C205.396,341.333,208.125,340.292,210.208,338.208z"></path><path d="M256,213.333c5.896,0,10.667-4.771,10.667-10.667v-21.333c0-5.896-4.771-10.667-10.667-10.667     s-10.667,4.771-10.667,10.667v21.333C245.333,208.563,250.104,213.333,256,213.333z"></path><path d="M288,224c2.729,0,5.458-1.042,7.542-3.125l21.333-21.333c4.167-4.167,4.167-10.917,0-15.083     c-4.167-4.167-10.917-4.167-15.083,0l-21.333,21.333c-4.167,4.167-4.167,10.917,0,15.083C282.542,222.958,285.271,224,288,224z"></path><path d="M195.125,184.458c-4.167,4.167-4.167,10.917,0,15.083l21.333,21.333c2.083,2.083,4.813,3.125,7.542,3.125     s5.458-1.042,7.542-3.125c4.167-4.167,4.167-10.917,0-15.083l-21.333-21.333C206.042,180.292,199.292,180.292,195.125,184.458z"></path>
</g>
</g>
</g></svg>