<svg xmlns="http://www.w3.org/2000/svg" xmlns:xlink="http://www.w3.org/1999/xlink"  width="70px" height="70px" fill="#ffffff" version="1.1" xml:space="preserve" class="u-svg-content" viewBox="0 0 512 512" id="svg-6235"><path d="m64 416c-17.6450195 0-32 14.3554688-32 32s14.3549805 32 32 32 32-14.3554688 32-32-14.3549805-32-32-32zm0 48c-8.8222656 0-16-7.1777344-16-16s7.1777344-16 16-16 16 7.1777344 16 16-7.1777344 16-16 16z"></path><path d="m504.9667969 213.6533203-143.9995117-143.9990234c-5.8222656-5.8242188-14.0595703-8.2529297-22.0371094-6.4970703-4.1578979.9150391-7.8930054 2.8464355-10.9279785 5.5310059l-55.0354004-55.0349121c-9.3554688-9.3544922-24.578125-9.3544922-33.9335938 0l-11.720459 11.7202148-11.6350098-11.6352539c-17.4663086-17.4658203-45.8876953-17.4658203-63.355957 0l-33.519043 33.5175781c-11.6201172 11.6191406-14.9428711 29.5146484-8.269043 44.5302734l82.6113281 185.875c1.3344727 3.0029297.6699219 6.5820313-1.6533203 8.90625l-10.8043823 10.8061523-23.0305786-23.0307617c-3.1240234-3.1230469-8.1894531-3.1230469-11.3134766 0l-16 16c-1.9873047 1.9873047-2.7861328 4.8710938-2.1044922 7.5976563l6.6708984 26.6835938-109.2167969 77.09375c-16.0878904 11.3574218-25.6928709 29.8945312-25.6928709 49.586914 0 33.4677734 27.2280273 60.6953125 60.6953125 60.6953125 19.6933594 0 38.2299805-9.6044922 49.5864258-25.6933594l77.09375-109.2167969 26.684082 6.6708984c2.7280273.6845703 5.6103516-.1162109 7.597168-2.1035156l16-16c3.1245117-3.125 3.1245117-8.1894531 0-11.3144531l-23.0299072-23.0297852 18.5699463-18.5678711c11.6196289-11.6201172 14.9428711-29.515625 8.2695313-44.53125l-82.6108398-185.875c-1.3349609-3.0029297-.6704102-6.5820313 1.6533203-8.90625l17.8344727-17.8359375c1.5112305-1.5117188 3.5200195-2.34375 5.6572266-2.34375s4.1459961.8320313 5.6572266 2.34375l3.7156982 3.7158203-11.7200928 11.7197266c-4.5292971 4.5292969-7.0234377 10.5556641-7.0234377 16.9677735s2.4941406 12.4384766 7.0234375 16.9677734l138.3466797 138.3461914v36.6860352c0 17.6445313 14.3549805 32 32 32 8.5341797 0 16.5678711-3.3271484 22.6367188-9.3837891.7792969-.7822266 1.5064697-1.6108398 2.1992798-2.4663086l23.1640014 23.1640625v76.6860352c0 17.6445313 14.3549805 32 32 32 8.5341797 0 16.5678711-3.3271484 22.6328125-9.3798828 6.0405273-6.0527344 9.3671875-14.0869141 9.3671875-22.6201172v-28.2949219c4.7094727 2.7304688 10.1757813 4.2949219 16 4.2949219 8.5341797 0 16.5678711-3.3271484 22.6328125-9.3798828 6.0405273-6.0527344 9.3671875-14.0869141 9.3671875-22.6201172v-113.3701172c0-6.4121094-2.4975586-12.4404297-7.0332031-16.9765625zm-291.4208985 153.4873047-27.6054688-6.9013672c-3.2080078-.8007813-6.5717773.4501953-8.4760742 3.1474609l-80.2539062 113.6933594c-8.3627929 11.8466797-22.0131836 18.9199219-36.5151367 18.9199219-24.6450195 0-44.6953125-20.0498047-44.6953125-44.6953125 0-14.5019531 7.0727539-28.1523438 18.9199219-36.5146484l113.6933594-80.2539063c2.6982422-1.9052734 3.9487305-5.2724609 3.1479492-8.4765625l-6.9013672-27.6054688 7.1401367-7.1406249 23.0261841 23.0263672c.0016479.0014648.0029297.003418.0045776.0048828l22.625 22.625c.0016479.0014648.003418.0029297.0050659.0043945l23.0256958 23.0258789zm-12.5742187-322.8574219c-4.5332031-4.5341797-10.5605469-7.0302734-16.9716797-7.0302734-6.4106445 0-12.4375 2.4970703-16.9707031 7.0302734l-17.8349609 17.8369141c-6.9707031 6.9716797-8.9638672 17.7080078-4.9599609 26.7167969l82.6108398 185.875c4.0039063 9.0097656 2.0102539 19.7470703-4.9619141 26.71875l-18.5703125 18.5683594-11.3117676-11.3115235 10.8049316-10.8076172c6.9702148-6.9716797 8.9633789-17.7080078 4.9599609-26.7167969l-82.6113281-185.875c-4.0043945-9.0097656-2.0107422-19.7470703 4.9614258-26.7177734l33.519043-33.5175781c11.2290039-11.2285156 29.5-11.2304688 40.7290039 0l11.6345825 11.6345215-11.3116455 11.3115234zm-8.0048828 49.3701172c-3.1171875-3.1171875-3.1171875-8.1894531 0-11.3066406l17.3754272-17.375c.0006714-.0007324.0013428-.0012207.0020142-.0019531l11.3125-11.3125 28.6899414-28.6894531c3.1171875-3.1171875 8.1894531-3.1171875 11.3066406 0l58.5609741 58.5605469c-.1273803 1.0200194-.2142944 2.0507812-.2142944 3.1015624v134.0561523zm190.7246094 190.7241211c.1982421-1.4448242.3085937-2.9057617.3085937-4.3774414v-24c0-4.4111328 3.5888672-8 8-8 2.1396484 0 4.1542969.8330078 5.652832 2.3261719 1.5136719 1.5195312 2.347168 3.5341797 2.347168 5.6738281v44.6860352zm112.3085937 59.6225586c0 4.2666016-1.6669922 8.2861328-4.6811523 11.3076172-3.0327149 3.0253906-7.0522461 4.6923828-11.3188477 4.6923828-8.8222656 0-16-7.1777344-16-16 0-4.4179688-3.581543-8-8-8s-8 3.5820313-8 8v56c0 4.2666016-1.6669922 8.2861328-4.6811523 11.3076172-3.0327149 3.0253906-7.0522461 4.6923828-11.3188477 4.6923828-8.8222656 0-16-7.1777344-16-16v-144c0-6.4023438-2.4907227-12.4287109-7.0332031-16.9873047-4.5385742-4.5224609-10.5639649-7.0126953-16.9667969-7.0126953-13.2333984 0-24 10.7666016-24 24v24c0 1.5908203-.2299805 3.1503906-.6855469 4.6464844-.7568359 2.4931641-2.144043 4.8027344-3.9956055 6.6611328-3.0327148 3.0253906-7.052246 4.6923828-11.3188476 4.6923828-8.8222656 0-16-7.1777344-16-16v-193.3701172c0-1.0263672.1621094-1.9794922.4990234-2.8798828.9067383-2.4658203 3.1557617-4.3691406 5.8691406-4.9667969 1.5620117-.3417969 4.5849609-.5166016 7.2851563 2.1845703l144 144c1.5131836 1.5126954 2.3466797 3.5244141 2.3466797 5.6621094z"></path><path d="m432 448c-17.6450195 0-32 14.3554688-32 32s14.3549805 32 32 32 32-14.3554688 32-32-14.3549805-32-32-32zm0 48c-8.8222656 0-16-7.1777344-16-16s7.1777344-16 16-16 16 7.1777344 16 16-7.1777344 16-16 16z"></path></svg>