<svg xmlns="http://www.w3.org/2000/svg"   width="40px" height="40px" fill="#ffffff" xmlns:xlink="http://www.w3.org/1999/xlink" version="1.1" xml:space="preserve" class="u-svg-content" viewBox="0 0 511.999 511.999" x="0px" y="0px" id="svg-d147" style="enable-background:new 0 0 511.999 511.999;"><g><g><path d="M190.02,329.829c-0.12-0.64-0.32-1.27-0.57-1.87c-0.25-0.61-0.55-1.19-0.92-1.73c-0.36-0.55-0.78-1.06-1.24-1.52    c-0.46-0.46-0.97-0.88-1.52-1.25c-0.54-0.36-1.12-0.67-1.72-0.92c-0.61-0.25-1.24-0.44-1.87-0.57c-1.29-0.26-2.62-0.25-3.91,0    c-0.64,0.13-1.27,0.32-1.87,0.57c-0.61,0.25-1.19,0.56-1.73,0.92c-0.55,0.37-1.06,0.79-1.52,1.25c-0.46,0.46-0.88,0.97-1.24,1.52    c-0.36,0.54-0.67,1.12-0.92,1.73c-0.25,0.6-0.44,1.23-0.57,1.87c-0.13,0.64-0.2,1.3-0.2,1.95s0.07,1.31,0.2,1.95    c0.13,0.64,0.32,1.27,0.57,1.87c0.25,0.61,0.56,1.19,0.92,1.73c0.36,0.55,0.78,1.059,1.24,1.52c0.46,0.46,0.97,0.88,1.52,1.24    c0.54,0.36,1.12,0.67,1.73,0.92c0.6,0.25,1.23,0.45,1.87,0.57c0.64,0.13,1.3,0.2,1.95,0.2c0.65,0,1.31-0.07,1.96-0.2    c0.63-0.12,1.26-0.32,1.87-0.57c0.6-0.25,1.18-0.56,1.72-0.92c0.55-0.36,1.06-0.78,1.52-1.24c0.46-0.461,0.88-0.97,1.24-1.52    c0.37-0.54,0.67-1.12,0.92-1.73c0.25-0.6,0.45-1.23,0.57-1.87c0.13-0.64,0.2-1.3,0.2-1.95S190.15,330.469,190.02,329.829z"></path>
</g>
</g><g><g><path d="M509.071,2.929c-2.131-2.131-5.107-3.189-8.105-2.875l-64.95,6.753c-2.282,0.237-4.414,1.253-6.037,2.876L381.82,57.84    c-3.905,3.905-3.905,10.237,0,14.142l4.134,4.134l-144.22,144.221l-21.232-21.232c-3.905-3.905-10.237-3.905-14.143,0    l-37.612,37.612c-3.905,3.905-3.905,10.237,0,14.143l13.393,13.393l-8.131,8.131l-23.236-9.178    c-3.706-1.464-7.927-0.588-10.744,2.23L22.064,383.399C7.836,397.627,0,416.545,0,436.667s7.836,39.039,22.064,53.267    c14.229,14.229,33.146,22.065,53.268,22.065c20.122,0,39.04-7.836,53.268-22.065L246.564,371.97    c2.817-2.818,3.693-7.039,2.229-10.745l-9.177-23.236l8.13-8.13l13.393,13.393c1.953,1.953,4.512,2.929,7.071,2.929    c2.56,0,5.118-0.976,7.071-2.929l37.612-37.612c3.905-3.905,3.905-10.237,0-14.143l-21.232-21.232l144.221-144.22l4.134,4.134    c1.876,1.875,4.419,2.929,7.071,2.929c2.652,0,5.195-1.054,7.071-2.929l48.158-48.159c1.622-1.623,2.638-3.754,2.875-6.037    l6.754-64.95C512.258,8.037,511.202,5.059,509.071,2.929z M218.603,339.232l9.177,23.236L114.457,475.792    c-10.45,10.451-24.345,16.207-39.125,16.207c-11.389,0-22.253-3.418-31.42-9.769l115.236-115.236    c3.905-3.905,3.905-10.237,0-14.143c-3.905-3.905-10.237-3.905-14.143,0L29.776,468.08c-14.873-21.548-12.73-51.379,6.43-70.539    L149.53,284.218l23.236,9.177c3.705,1.463,7.926,0.588,10.744-2.229l12.772-12.771l37.322,37.322l-12.771,12.771    C218.016,331.306,217.14,335.527,218.603,339.232z M291.681,298.569l-23.47,23.47l-78.251-78.251l23.47-23.47L291.681,298.569z     M277.52,256.123l-21.644-21.644L400.097,90.258l21.643,21.644L277.52,256.123z M485.667,70.387l-38.579,38.579l-44.055-44.055    l38.579-38.579l49.167-5.112L485.667,70.387z"></path>
</g>
</g></svg>