<svg xmlns="http://www.w3.org/2000/svg" width="70px" height="70px" fill="#ffffff" xmlns:xlink="http://www.w3.org/1999/xlink" version="1.1" xml:space="preserve" class="u-svg-content" viewBox="0 0 512.00038 512" id="svg-ce7a"><path d="m433.429688 462.703125-11.527344 11.527344c-23.65625 23.65625-62.148438 23.65625-85.804688 0l-11.527344-11.527344c-1.875-1.875-4.417968-2.929687-7.070312-2.929687s-5.195312 1.054687-7.070312 2.929687l-11.527344 11.523437c-11.457032 11.460938-26.695313 17.773438-42.902344 17.773438s-31.441406-6.3125-42.902344-17.769531l-11.527344-11.527344c-1.875-1.875-4.417968-2.929687-7.070312-2.929687s-5.195312 1.054687-7.070312 2.929687l-11.527344 11.523437c-23.652344 23.660157-62.144532 23.65625-85.804688 0l-11.523437-11.523437c-3.90625-3.90625-10.234375-3.90625-14.144531 0-3.90625 3.902344-3.90625 10.234375 0 14.140625l11.527343 11.527344c31.453125 31.453125 82.632813 31.457031 114.089844 0l4.453125-4.457032 4.457031 4.457032c15.234375 15.238281 35.492188 23.628906 57.042969 23.628906 21.546875 0 41.808594-8.390625 57.042969-23.628906l4.457031-4.453125 4.453125 4.453125c31.457031 31.457031 82.636719 31.457031 114.089844 0l11.527343-11.527344c3.90625-3.902344 3.90625-10.234375 0-14.140625s-10.234374-3.90625-14.140624 0zm0 0"></path><path d="m509.070312 390.929688c-3.90625-3.90625-10.234374-3.90625-14.140624 0l-11.527344 11.527343c-23.65625 23.652344-62.148438 23.652344-85.804688 0l-11.527344-11.527343c-1.875-1.875-4.417968-2.929688-7.070312-2.929688s-5.195312 1.054688-7.070312 2.929688l-11.527344 11.527343c-8.605469 8.601563-19.171875 14.0625-30.273438 16.40625v-230.863281h6c5.519532 0 10-4.476562 10-10v-48c0-5.523438-4.480468-10-10-10h-8.28125c4.128906-11.640625 15.242188-20 28.28125-20h105.871094c5.523438 0 10-4.476562 10-10s-4.476562-10-10-10h-105.875c-24.144531 0-44.347656 17.207031-48.992188 40h-100.546874c5.070312-55.984375 52.257812-100 109.542968-100h185.871094c5.523438 0 10-4.476562 10-10s-4.476562-10-10-10h-185.875c-68.316406 0-124.496094 52.972656-129.617188 120h-10.382812c-5.519531 0-10 4.476562-10 10v48c0 5.523438 4.480469 10 10 10h6v165.84375c0 5.523438 4.480469 10 10 10 5.523438 0 10-4.476562 10-10v-165.84375h108v231.734375c-12.992188-1.578125-25.574219-7.328125-35.527344-17.277344l-11.527344-11.527343c-1.875-1.875-4.417968-2.929688-7.070312-2.929688s-5.195312 1.054688-7.070312 2.929688l-11.527344 11.527343c-23.65625 23.652344-62.148438 23.652344-85.804688 0l-11.527344-11.527343c-1.875-1.875-4.417968-2.929688-7.070312-2.929688s-5.195312 1.054688-7.070312 2.929688l-11.527344 11.527343c-23.65625 23.652344-62.148438 23.652344-85.804688 0l-11.527344-11.527343c-3.902343-3.90625-10.234374-3.90625-14.140624 0-3.90625 3.902343-3.90625 10.234374 0 14.140624l11.523437 11.527344c31.457031 31.453125 82.636719 31.453125 114.089844 0l4.457031-4.457031 4.453125 4.457031c31.457031 31.453125 82.636719 31.457032 114.089844 0l4.457031-4.453125 4.453125 4.453125c31.457031 31.457032 82.636719 31.457032 114.089844 0l4.457031-4.453125 4.453125 4.457031c15.730469 15.726563 36.386719 23.589844 57.046875 23.589844 20.65625 0 41.316406-7.863281 57.042969-23.59375l11.527343-11.527344c3.90625-3.902343 3.90625-10.234374 0-14.140624zm-322.945312-250.929688h140v28h-140zm0 0"></path><path d="m502 80c-2.628906 0-5.210938 1.070312-7.070312 2.929688-1.859376 1.859374-2.929688 4.441406-2.929688 7.070312 0 2.640625 1.070312 5.210938 2.929688 7.070312 1.859374 1.859376 4.441406 2.929688 7.070312 2.929688s5.210938-1.070312 7.070312-2.929688c1.859376-1.859374 2.929688-4.441406 2.929688-7.070312s-1.070312-5.210938-2.929688-7.070312c-1.859374-1.859376-4.441406-2.929688-7.070312-2.929688zm0 0"></path><path d="m199.199219 401.070312c1.859375-1.859374 2.929687-4.441406 2.929687-7.070312s-1.070312-5.210938-2.929687-7.070312c-1.871094-1.859376-4.441407-2.929688-7.070313-2.929688-2.640625 0-5.210937 1.070312-7.070312 2.929688-1.867188 1.859374-2.929688 4.441406-2.929688 7.070312s1.0625 5.210938 2.929688 7.070312c1.859375 1.859376 4.433594 2.929688 7.070312 2.929688 2.628906 0 5.210938-1.070312 7.070313-2.929688zm0 0"></path><path d="m242.332031 309v-80.667969c0-5.523437-4.476562-10-10-10-5.519531 0-10 4.476563-10 10v80.667969c0 5.523438 4.480469 10 10 10 5.523438 0 10-4.476562 10-10zm0 0"></path><path d="m272.332031 287.511719c5.523438 0 10-4.476563 10-10v-49.175781c0-5.523438-4.476562-10-10-10-5.519531 0-10 4.476562-10 10v49.175781c0 5.523437 4.480469 10 10 10zm0 0"></path><path d="m262.332031 353.84375c0 5.523438 4.480469 10 10 10 5.523438 0 10-4.476562 10-10v-23.34375c0-5.523438-4.476562-10-10-10-5.519531 0-10 4.476562-10 10zm0 0"></path></svg>